<?xml version="1.0" encoding="UTF-8"?>
<svg xmlns="http://www.w3.org/2000/svg" xmlns:xlink="http://www.w3.org/1999/xlink" width="150pt" height="74.999997pt" viewBox="0 0 150 74.999997" version="1.2">
<defs>
<clipPath id="clip1">
  <path d="M 60 22.5 L 90 22.5 L 90 52.5 L 60 52.5 Z M 60 22.5 "/>
</clipPath>
</defs>
<g id="surface1">
<rect x="0" y="0" width="150" height="74.999997" style="fill:rgb(100%,100%,100%);fill-opacity:1;stroke:none;"/>
<rect x="0" y="0" width="150" height="74.999997" style="fill:rgb(100%,100%,100%);fill-opacity:1;stroke:none;"/>
<g clip-path="url(#clip1)" clip-rule="nonzero">
<path style=" stroke:none;fill-rule:nonzero;fill:rgb(45.098877%,45.098877%,45.098877%);fill-opacity:1;" d="M 68.707031 22.5 C 63.914062 22.5 60 26.414062 60 31.207031 L 60 43.800781 C 60 48.585938 63.914062 52.5 68.707031 52.5 L 81.300781 52.5 C 86.085938 52.5 90 48.585938 90 43.792969 L 90 31.207031 C 90 26.414062 86.085938 22.5 81.292969 22.5 Z M 68.707031 24.808594 L 81.292969 24.808594 C 84.84375 24.808594 87.691406 27.65625 87.691406 31.207031 L 87.691406 43.792969 C 87.691406 47.34375 84.84375 50.191406 81.300781 50.191406 L 68.707031 50.191406 C 65.15625 50.191406 62.308594 47.34375 62.308594 43.800781 L 62.308594 31.207031 C 62.308594 27.65625 65.15625 24.808594 68.707031 24.808594 Z M 84.230469 27.117188 C 83.589844 27.117188 83.078125 27.628906 83.078125 28.269531 C 83.078125 28.910156 83.589844 29.421875 84.230469 29.421875 C 84.871094 29.421875 85.382812 28.910156 85.382812 28.269531 C 85.382812 27.628906 84.871094 27.117188 84.230469 27.117188 Z M 75 29.421875 C 70.554688 29.421875 66.921875 33.054688 66.921875 37.5 C 66.921875 41.945312 70.554688 45.578125 75 45.578125 C 79.445312 45.578125 83.078125 41.945312 83.078125 37.5 C 83.078125 33.054688 79.445312 29.421875 75 29.421875 Z M 75 31.730469 C 78.199219 31.730469 80.769531 34.300781 80.769531 37.5 C 80.769531 40.699219 78.199219 43.269531 75 43.269531 C 71.800781 43.269531 69.230469 40.699219 69.230469 37.5 C 69.230469 34.300781 71.800781 31.730469 75 31.730469 Z M 75 31.730469 "/>
</g>
</g>
</svg>
