<?xml version="1.0" encoding="utf-8"?>
<!-- Generator: Adobe Illustrator 21.0.0, SVG Export Plug-In . SVG Version: 6.00 Build 0)  -->
<svg version="1.1" id="Layer_1" xmlns="http://www.w3.org/2000/svg" xmlns:xlink="http://www.w3.org/1999/xlink" x="0px" y="0px"
	 viewBox="0 0 33.3 32.6" style="enable-background:new 0 0 33.3 32.6;" xml:space="preserve">
<style type="text/css">
	.st0{fill:url(#SVGID_1_);}
	.st1{display:none;}
	.st2{display:inline;fill:url(#SVGID_2_);}
	.st3{fill:url(#SVGID_3_);}
	.st4{fill:url(#XMLID_2_);}
</style>
<g>
	<linearGradient id="SVGID_1_" gradientUnits="userSpaceOnUse" x1="12.9672" y1="19.7665" x2="20.0339" y2="10.9773">
		<stop  offset="0" style="stop-color:#FDBE52"/>
		<stop  offset="0" style="stop-color:#ED2540"/>
		<stop  offset="0.6784" style="stop-color:#AB3C95"/>
		<stop  offset="1" style="stop-color:#5755A3"/>
	</linearGradient>
	<path class="st0" d="M21.1,11.9c-0.5-0.3-1.1-0.4-1.7-0.4c-1.1,0-2.1,0.5-2.8,1.3C16,12,15,11.5,13.8,11.5c-0.6,0-1.2,0.2-1.7,0.4
		c-1.1,0.6-1.9,1.8-1.9,3.2c0,0.4,0.1,0.8,0.2,1.1c0.6,2.8,6.2,6.3,6.2,6.3s5.6-3.5,6.2-6.3c0.1-0.3,0.2-0.7,0.2-1.1
		C23,13.7,22.3,12.6,21.1,11.9z"/>
	<g class="st1">
		<radialGradient id="SVGID_2_" cx="4.75" cy="30.8702" r="34.3793" gradientUnits="userSpaceOnUse">
			<stop  offset="0" style="stop-color:#FDBE52"/>
			<stop  offset="0.3273" style="stop-color:#ED2540"/>
			<stop  offset="0.6485" style="stop-color:#AB3C95"/>
			<stop  offset="1" style="stop-color:#5755A3"/>
		</radialGradient>
		<path class="st2" d="M21.8,28.5H11.5c-3.8,0-6.8-3.1-6.8-6.8V11.3c0-3.8,3.1-6.8,6.8-6.8h10.4c3.8,0,6.8,3.1,6.8,6.8v10.4
			C28.7,25.5,25.6,28.5,21.8,28.5z M11.5,6.6c-2.6,0-4.8,2.1-4.8,4.8v10.4c0,2.6,2.1,4.8,4.8,4.8h10.4c2.6,0,4.8-2.1,4.8-4.8V11.3
			c0-2.6-2.1-4.8-4.8-4.8H11.5z"/>
	</g>
	<g>
		<radialGradient id="SVGID_3_" cx="4.7498" cy="30.8696" r="34.379" gradientUnits="userSpaceOnUse">
			<stop  offset="0" style="stop-color:#FDBE52"/>
			<stop  offset="0.3273" style="stop-color:#ED2540"/>
			<stop  offset="0.6485" style="stop-color:#AB3C95"/>
			<stop  offset="1" style="stop-color:#5755A3"/>
		</radialGradient>
		<circle class="st3" cx="23.1" cy="10" r="1.5"/>
	</g>
</g>
<g id="XMLID_332_">
	<radialGradient id="XMLID_2_" cx="2.8193" cy="29.3934" r="44.3459" gradientUnits="userSpaceOnUse">
		<stop  offset="0" style="stop-color:#FDBE52"/>
		<stop  offset="0.3273" style="stop-color:#ED2540"/>
		<stop  offset="0.6485" style="stop-color:#AB3C95"/>
		<stop  offset="1" style="stop-color:#5755A3"/>
	</radialGradient>
	<path id="XMLID_337_" class="st4" d="M21.7,28.3h-9.3C8.3,28.3,5,25,5,21v-9.3c0-4.1,3.3-7.4,7.4-7.4h9.3c4.1,0,7.4,3.3,7.4,7.4V21
		C29,25,25.7,28.3,21.7,28.3z M12.3,6.1c-3.1,0-5.6,2.5-5.6,5.6V21c0,3.1,2.5,5.6,5.6,5.6h9.3c3.1,0,5.6-2.5,5.6-5.6v-9.3
		c0-3.1-2.5-5.6-5.6-5.6H12.3z"/>
</g>
</svg>
